<svg width="92" height="74" viewBox="0 0 92 74" fill="none" xmlns="http://www.w3.org/2000/svg">
<g clip-path="url(#clip0_1_199)">
<path d="M0 32.1999V71.2999C0 72.5706 1.02925 73.5999 2.3 73.5999H13.8V27.5999H4.6C2.05994 27.5999 0 29.6598 0 32.1999ZM51.75 25.2999H48.3V19.5499C48.3 18.9145 47.7854 18.3999 47.15 18.3999H44.85C44.2146 18.3999 43.7 18.9145 43.7 19.5499V28.7499C43.7 29.3853 44.2146 29.8999 44.85 29.8999H51.75C52.3854 29.8999 52.9 29.3853 52.9 28.7499V26.4499C52.9 25.8145 52.3854 25.2999 51.75 25.2999ZM71.5516 16.1056L48.5516 0.771828C47.7958 0.268461 46.908 -0.00012207 46 -0.00012207C45.092 -0.00012207 44.2042 0.268461 43.4484 0.771828L20.4484 16.1056C19.8185 16.5256 19.3019 17.0947 18.9445 17.7622C18.5872 18.4297 18.4002 19.1751 18.4 19.9323V73.5999H36.8V52.8999C36.8 51.6291 37.8292 50.5999 39.1 50.5999H52.9C54.1707 50.5999 55.2 51.6291 55.2 52.8999V73.5999H73.6V19.9337C73.6 18.3956 72.8309 16.9581 71.5516 16.1056ZM46 36.7999C39.6491 36.7999 34.5 31.6508 34.5 25.2999C34.5 18.949 39.6491 13.7999 46 13.7999C52.3509 13.7999 57.5 18.949 57.5 25.2999C57.5 31.6508 52.3509 36.7999 46 36.7999ZM87.4 27.5999H78.2V73.5999H89.7C90.9707 73.5999 92 72.5706 92 71.2999V32.1999C92 29.6598 89.9401 27.5999 87.4 27.5999Z" fill="#229ED9"/>
</g>
<defs>
<clipPath id="clip0_1_199">
<rect width="92" height="73.6" fill="white"/>
</clipPath>
</defs>
</svg>
