<svg width="258" height="294" viewBox="0 0 258 294" fill="none" xmlns="http://www.w3.org/2000/svg">
<path d="M234.15 184.744L133.58 125.852L17.5382 53.874" stroke="white"/>
<path d="M4 17.7725L19.7946 293.05L49.1275 71.9255H155.177L4 17.7725Z" fill="url(#paint0_linear_33_128)" stroke="white" stroke-width="6"/>
<path d="M248.548 191.53L95.3858 103.493L171.865 189.269L170.269 243.399L91.7956 225.284L169.139 281.741L248.548 191.53Z" fill="url(#paint1_linear_33_128)"/>
<path d="M252.338 62.9724L177.317 4.32702L95.3858 103.493L248.548 191.53L138.238 104.756L175.654 60.7119L174.325 105.82L252.338 62.9724Z" fill="url(#paint2_linear_33_128)"/>
<path d="M252.338 62.9724L253.782 65.6019L257.77 63.4114L254.185 60.6089L252.338 62.9724ZM177.317 4.32702L179.164 1.96349L176.864 0.16513L175.004 2.41622L177.317 4.32702ZM95.3858 103.493L93.0731 101.582L91.4329 103.567L93.1466 105.489L95.3858 103.493ZM248.548 191.53L250.8 193.512L252.895 191.132L250.403 189.172L248.548 191.53ZM169.139 281.741L167.37 284.164L169.581 285.778L171.391 283.723L169.139 281.741ZM91.7956 225.284L92.4703 222.361L90.0268 227.707L91.7956 225.284ZM170.269 243.399L169.594 246.322L173.16 247.145L173.268 243.487L170.269 243.399ZM171.865 189.269L174.863 189.358L174.899 188.164L174.104 187.273L171.865 189.269ZM174.325 105.82L171.326 105.731L171.171 110.974L175.769 108.449L174.325 105.82ZM175.654 60.7119L178.653 60.8003L178.905 52.2517L173.368 58.7696L175.654 60.7119ZM138.238 104.756L135.952 102.814L133.935 105.188L136.384 107.114L138.238 104.756ZM254.185 60.6089L179.164 1.96349L175.469 6.69056L250.49 65.336L254.185 60.6089ZM175.004 2.41622L93.0731 101.582L97.6986 105.404L179.629 6.23782L175.004 2.41622ZM93.8908 106.094L247.053 194.131L250.043 188.929L96.8808 100.892L93.8908 106.094ZM246.296 189.548L166.887 279.758L171.391 283.723L250.8 193.512L246.296 189.548ZM170.907 279.317L93.5643 222.861L90.0268 227.707L167.37 284.164L170.907 279.317ZM91.1208 228.207L169.594 246.322L170.944 240.476L92.4703 222.361L91.1208 228.207ZM173.268 243.487L174.863 189.358L168.866 189.181L167.27 243.311L173.268 243.487ZM174.104 187.273L97.625 101.496L93.1466 105.489L169.625 191.266L174.104 187.273ZM175.769 108.449L253.782 65.6019L250.894 60.3429L172.88 103.19L175.769 108.449ZM177.323 105.908L178.653 60.8003L172.656 60.6235L171.326 105.731L177.323 105.908ZM173.368 58.7696L135.952 102.814L140.525 106.698L177.941 62.6542L173.368 58.7696ZM136.384 107.114L246.693 193.888L250.403 189.172L140.093 102.398L136.384 107.114Z" fill="white"/>
<defs>
<linearGradient id="paint0_linear_33_128" x1="10.7691" y1="132.848" x2="4" y2="277.256" gradientUnits="userSpaceOnUse">
<stop stop-color="#3A3A3A"/>
<stop offset="1" stop-color="#BDFF00"/>
</linearGradient>
<linearGradient id="paint1_linear_33_128" x1="180.82" y1="191.791" x2="153.55" y2="274.509" gradientUnits="userSpaceOnUse">
<stop stop-color="#3A3A3A"/>
<stop offset="1" stop-color="#BDFF00"/>
</linearGradient>
<linearGradient id="paint2_linear_33_128" x1="176.189" y1="4.29378" x2="128.485" y2="129.299" gradientUnits="userSpaceOnUse">
<stop stop-color="#BDFF00"/>
<stop offset="0.583333" stop-color="#3A3A3A"/>
</linearGradient>
</defs>
</svg>
